<svg id="visual" viewBox="0 0 900 600" width="900" height="600" xmlns="http://www.w3.org/2000/svg" xmlns:xlink="http://www.w3.org/1999/xlink" version="1.1"><path d="M0 507L21.5 504.2C43 501.3 86 495.7 128.8 495C171.7 494.3 214.3 498.7 257.2 501.5C300 504.3 343 505.7 385.8 502.8C428.7 500 471.3 493 514.2 485.5C557 478 600 470 642.8 464.8C685.7 459.7 728.3 457.3 771.2 462.7C814 468 857 481 878.5 487.5L900 494L900 601L878.5 601C857 601 814 601 771.2 601C728.3 601 685.7 601 642.8 601C600 601 557 601 514.2 601C471.3 601 428.7 601 385.8 601C343 601 300 601 257.2 601C214.3 601 171.7 601 128.8 601C86 601 43 601 21.5 601L0 601Z" fill="#845ec2"></path><path d="M0 498L21.5 494.2C43 490.3 86 482.7 128.8 480.3C171.7 478 214.3 481 257.2 487.8C300 494.7 343 505.3 385.8 511C428.7 516.7 471.3 517.3 514.2 513.5C557 509.7 600 501.3 642.8 500.8C685.7 500.3 728.3 507.7 771.2 512.3C814 517 857 519 878.5 520L900 521L900 601L878.5 601C857 601 814 601 771.2 601C728.3 601 685.7 601 642.8 601C600 601 557 601 514.2 601C471.3 601 428.7 601 385.8 601C343 601 300 601 257.2 601C214.3 601 171.7 601 128.8 601C86 601 43 601 21.5 601L0 601Z" fill="#906dc6"></path><path d="M0 545L21.5 540.5C43 536 86 527 128.8 523C171.7 519 214.3 520 257.2 522.3C300 524.7 343 528.3 385.8 527.8C428.7 527.3 471.3 522.7 514.2 519.5C557 516.3 600 514.7 642.8 514.7C685.7 514.7 728.3 516.3 771.2 518C814 519.7 857 521.3 878.5 522.2L900 523L900 601L878.5 601C857 601 814 601 771.2 601C728.3 601 685.7 601 642.8 601C600 601 557 601 514.2 601C471.3 601 428.7 601 385.8 601C343 601 300 601 257.2 601C214.3 601 171.7 601 128.8 601C86 601 43 601 21.5 601L0 601Z" fill="#9c7dc9"></path><path d="M0 558L21.5 556.2C43 554.3 86 550.7 128.8 550.8C171.7 551 214.3 555 257.2 556.8C300 558.7 343 558.3 385.8 554.3C428.7 550.3 471.3 542.7 514.2 542.7C557 542.7 600 550.3 642.8 553.7C685.7 557 728.3 556 771.2 551.2C814 546.3 857 537.7 878.5 533.3L900 529L900 601L878.5 601C857 601 814 601 771.2 601C728.3 601 685.7 601 642.8 601C600 601 557 601 514.2 601C471.3 601 428.7 601 385.8 601C343 601 300 601 257.2 601C214.3 601 171.7 601 128.8 601C86 601 43 601 21.5 601L0 601Z" fill="#a88ccd"></path><path d="M0 583L21.5 578.7C43 574.3 86 565.7 128.8 562.7C171.7 559.7 214.3 562.3 257.2 563.8C300 565.3 343 565.7 385.8 567.7C428.7 569.7 471.3 573.3 514.2 574.7C557 576 600 575 642.8 575.5C685.7 576 728.3 578 771.2 575.5C814 573 857 566 878.5 562.5L900 559L900 601L878.5 601C857 601 814 601 771.2 601C728.3 601 685.7 601 642.8 601C600 601 557 601 514.2 601C471.3 601 428.7 601 385.8 601C343 601 300 601 257.2 601C214.3 601 171.7 601 128.8 601C86 601 43 601 21.5 601L0 601Z" fill="#b39cd0"></path></svg>